<svg width="512" height="512" viewBox="0 0 512 512" fill="none" xmlns="http://www.w3.org/2000/svg">
<g id="download">
<g id="grupomascaras">
<g id="agrupados">
<path id="base" d="M480.6 341.4C469.3 341.4 460.2 350.5 460.2 361.8V460.2H51.8V361.8C51.8 350.5 42.7 341.4 31.4 341.4C20.1 341.4 11 350.5 11 361.8V480.6C11 491.9 20.1 501 31.4 501H480.6C491.9 501 501 491.9 501 480.6V361.8C501 350.5 491.9 341.4 480.6 341.4Z" fill="black"/>
<path id="flecha" d="M241 365.6C252.5 377.2 266.6 370.8 270.9 365.6L388.2 239.4C395.9 231.1 395.4 218.2 387.1 210.5C378.8 202.8 365.9 203.3 358.3 211.6L276.4 299.7V34.5C276.4 23.2 267.3 14.1 256 14.1C244.7 14.1 235.6 23.2 235.6 34.5V299.8L153.7 211.7C146 203.4 133.1 203 124.8 210.6C116.5 218.3 116.1 231.2 123.7 239.5L241 365.6Z" fill="black"/>
</g>
</g>
</g>
</svg>
