<svg width="511" height="511" viewBox="0 0 511 511" fill="none" xmlns="http://www.w3.org/2000/svg">
<g id="folder" clip-path="url(#clip0)">
<path id="carpeta" d="M462.096 463.094H46.9082C20.4483 463.094 -0.998047 441.644 -0.998047 415.188V95.8125C-0.998047 69.3565 20.4483 47.9062 46.9082 47.9062H184.241C192.498 47.8868 200.44 51.0875 206.373 56.8341L260.888 109.115C261.699 109.926 262.424 110.818 263.044 111.781H462.096C488.556 111.781 510.002 133.231 510.002 159.688V415.188C510.002 441.644 488.552 463.094 462.096 463.094ZM46.9082 79.8437C38.0895 79.8437 30.9395 86.9938 30.9395 95.8125V415.188C30.9395 424.006 38.0895 431.156 46.9082 431.156H462.096C470.914 431.156 478.064 424.006 478.064 415.188V159.688C478.064 150.869 470.914 143.719 462.096 143.719H263.044C253.087 143.719 243.695 139.072 237.656 131.15L184.241 79.8437H46.9082Z" fill="black"/>
<path id="flecha" d="M395.687 292.176C405.148 282.822 399.928 271.353 395.687 267.856L292.757 172.445C285.987 166.182 275.466 166.589 269.186 173.34C262.906 180.091 263.313 190.584 270.083 196.766L341.938 263.382L125.638 263.382C116.422 263.382 109 270.784 109 279.975C109 289.167 116.422 296.568 125.638 296.568L342.02 296.568L270.165 363.185C263.395 369.448 263.069 379.941 269.267 386.692C275.548 393.443 286.069 393.768 292.839 387.587L395.687 292.176Z" fill="black"/>
</g>
<defs>
<clipPath id="clip0">
<rect width="511" height="511" fill="white"/>
</clipPath>
</defs>
</svg>
